<svg version="1.0" xmlns="http://www.w3.org/2000/svg" width="800" height="420" viewBox="0 0 600 315"><path d="M174.6 37.1c-.7 4.3-5.6 61.5-5.6 65 0 2.3.5 2.7 3.7 3.2 2 .4 3.9.4 4.1.2 1.3-1.3 16.1-69 15.2-69.8-.4-.5-4.4-1.1-8.8-1.4l-8.1-.6-.5 3.4zm-47.3 23.1c-2.9 1.1-5.3 2.4-5.3 2.9 0 .8 19.8 45 20.5 45.7.8.8 7.5-2 7.5-3.1 0-.7-3-11.7-6.7-24.4-7.6-26.2-6.5-24.7-16-21.1zm69.9 3.5c-2.5 6.2-15.2 42.4-15.2 43.3 0 1.3 7 3.4 8 2.4 1-1.1 22-41.8 22-42.7 0-1-9.7-5.7-11.8-5.7-1.2 0-2.4 1.1-3 2.7zm-45.3 12.1c-1.4.6-1.4 1.7.2 11.7 3.1 19.1 2.4 17.5 6.9 17.5 2.1 0 4.2-.5 4.5-1 .4-.6.3-7.3-.1-15l-.7-14-4.6.1c-2.5 0-5.3.3-6.2.7zm407.7 29.8c-9.4 3.4-15.6 12.2-15.6 22.1 0 12.7 6.6 19.7 25.5 26.8 9.6 3.6 12.5 5.9 12.5 9.9 0 5.2-2.9 7.1-10.9 7.1-6.4-.1-10.2-1.4-16.3-5.8-1.6-1-2.6-.4-7.5 4.6-6.8 6.7-6.7 7.4 1.8 12.5 7.3 4.4 11.7 5.5 22.9 5.5 11.2.1 16.7-2 22.5-8.4 4.6-5.2 5.5-7.6 5.5-15.5 0-13.1-5.4-19.1-23.7-25.9-3.7-1.4-8.5-3.7-10.5-5.1-3.1-2-3.8-3-3.8-5.8 0-4 2.5-6.5 7.3-7.3 5.1-.8 9.9.3 14.3 3.3l3.8 2.6 5.3-5.5c2.9-3 5.3-6.2 5.3-7 0-1.9-6.4-6.1-12.4-8.1-5.9-2-20.6-2-26 0zm-43.9.1c-.4.3-.7 13.8-.7 29.8 0 27.8-.1 29.4-2 31.8-4.5 5.6-12.3 5.6-18.2 0l-2.9-2.7-5.6 5.7-5.7 5.7 3.8 3.9c5.6 5.7 12.5 8.5 21.1 8.4 3.9 0 8.6-.7 10.6-1.5 5-2.2 10.5-7.3 13.7-12.7l2.7-4.6.3-32.3.3-32.2h-8.4c-4.6 0-8.7.3-9 .7zm-362.3 22.1c-7.3 2.5-12.6 7.2-16.5 14.4-3.2 5.8-3.4 6.9-3.4 15.3 0 7.8.4 9.7 2.7 14 3.4 6.5 9 11.8 15.3 14.6 7 3.2 19 3.2 25.9.1 5.3-2.4 11.6-6.8 11.6-8.1 0-.8-9.9-11.1-10.7-11.1-.2 0-2.1 1.3-4.1 2.9-5.3 4.2-10 4.8-15.6 2.1-11.5-5.5-12.3-21.5-1.5-28.8 4.7-3.3 12.7-2.7 16.7 1.1 1.6 1.5 3.3 2.7 3.8 2.7 1.4 0 10.4-9.3 10.4-10.8 0-1.9-7.9-7.1-13.3-8.7-6.7-2-15-1.8-21.3.3z"/><path d="M206.3 127.4c-4.6 1.5-10.4 4.8-12.4 7.2-1 1.3-.5 2.3 3.6 6.4l4.8 4.9 3.1-2.2c2.1-1.5 4.9-2.3 9.1-2.5 5.4-.4 6.5-.1 8.7 1.9 1.5 1.3 2.9 3.4 3.3 4.6.6 2.2.5 2.3-7.3 2.3-4.3 0-10.2.7-13 1.5-16.8 5-20.5 26.3-6 34.5 3.6 2 5.6 2.4 11.8 2.4 4.5-.1 9-.7 11.3-1.7 2-.9 3.7-1.2 3.7-.6 0 .5 3.6.9 8 .9h8v-19.8c0-23.6-.9-27.9-7.1-34.1-6.6-6.6-19.1-8.9-29.6-5.7zm20.7 39.1c0 4-.3 4.6-3.2 6.1-3.9 2-11.9 2.4-14.1.5-2.1-1.7-2.2-6.4-.3-8 2.2-1.9 6.6-2.9 12.4-3l5.2-.1v4.5zm48.9-39.6c-1.4.5-3.5 1.3-4.6 1.9-1.7.9-2.2.9-2.7-.3-.4-1.2-2.4-1.5-8.6-1.5h-8v60h17v-21.4c0-15.9.3-21.6 1.3-22.4 2.6-2.2 9.7-3.4 13.2-2.2 6.4 2.1 7 4.2 7.3 26.2l.4 19.8h16l-.4-22.3c-.4-24.9-.9-27.1-8.2-33.5-5.4-4.7-15.2-6.5-22.7-4.3zm111.2 1c-5.6 2-9.8 4.6-11.5 7.4-.9 1.3-.2 2.5 3.3 6.1l4.4 4.5 4.2-2.5c8.3-4.8 20.3-2 20.5 4.8 0 1.6-1 1.8-7.3 1.8-9.5 0-16.8 2.2-21.6 6.6-5.1 4.5-6.4 8.1-5.9 15.4.6 8 4.2 12.7 11.9 15.4 4.7 1.6 6.3 1.7 12.8.7 4.1-.6 8-1.6 8.8-2.2.9-.8 1.3-.8 1.3 0 0 .7 2.9 1.1 8.6 1.1h8.6l-.4-21.3c-.4-22.9-.9-25.1-6.3-31.5-4.3-5.1-9.9-7.5-18.5-7.9-5.6-.3-8.9.1-12.9 1.6zM408 167v4.9l-5.5 1.6c-8.7 2.6-14.9-.5-13-6.4.8-2.6 7-5 13.3-5l5.2-.1v5zm39-40.1c-8.8 2.7-14 8.5-14.8 16.1-.2 2.8.1 6.3.8 8 1.8 4.2 7.9 9.4 13.6 11.5 11.2 4.1 15.6 6.4 15.2 8.2-.9 5-10.7 5.1-16.3.2-1.8-1.6-3.7-2.9-4.2-2.9s-2.9 2-5.3 4.5c-5.1 5.2-5 5.9 1.8 11.2 7.6 5.8 20.5 6.7 30.1 2.1 5.7-2.8 10.1-9.5 10.1-15.5 0-9.8-5.9-15.1-24.2-21.7-5.6-2.1-6.8-4.4-3.6-6.9 3.1-2.6 9.7-1.8 14.2 1.7 1.9 1.4 3.9 2.6 4.3 2.6.5 0 2.9-2 5.3-4.5l4.4-4.5-3.4-3.5c-5.9-6.1-19.2-9.2-28-6.6zm-135 1.6c0 .8 4.8 14.3 10.7 30l10.7 28.5h16.1l10.8-29.3c5.9-16 10.7-29.6 10.7-30s-3.9-.6-8.7-.5l-8.6.3-6.2 18.5-6.2 18.5-6.2-18.8-6.3-18.7h-8.4c-6.8 0-8.4.3-8.4 1.5zm-125.5 77.2c-1.6.8-3.2 1.7-3.4 1.9-.5.4 14 39.6 15 40.8s12.9-4.3 12.9-5.8c-.1-1.7-19.7-38-20.6-38.3-.5-.1-2.2.5-3.9 1.4zm-47.1 6c-17.4 39.4-27.5 63.6-26.8 64.2 1.5 1.4 12.3 5.1 14.9 5.1 1.4 0 2.6-.7 2.9-1.8 4.9-16.3 19.6-68.6 19.6-69.6 0-1.2-4.8-3.6-7.2-3.6-.4 0-2 2.6-3.4 5.7zm32.8-2c-2.9.4-3.3.8-2.9 2.6.3 1.2 1.5 13.6 2.8 27.5l2.3 25.3 2.5-.5c1.5-.3 4.8-.8 7.4-1.2 2.7-.4 5.1-1.2 5.3-1.9.3-.7-1.8-11.1-4.6-23.1-6.6-28.6-6.9-29.4-8.3-29.2-.7 0-2.7.3-4.5.5zm-17.2.9c0 .4-.7 5.1-1.6 10.6s-1.4 10.1-1.2 10.2c.2.2 2.9.6 6.1 1l5.7.6v-23h-4.5c-2.5 0-4.5.3-4.5.6z"/></svg>